HIERARCHY
ROOT Hips
{
	OFFSET 0.00000 0.00000 0.00000
	CHANNELS 6 Xposition Yposition Zposition Zrotation Yrotation Xrotation 
	JOINT RightUpLegDummy
	{
		OFFSET 0 0 0
		CHANNELS 3 Zrotation Yrotation Xrotation
		JOINT RightUpLeg
		{
			OFFSET -3.52197 -3.41223 0.04002
			CHANNELS 3 Zrotation Yrotation Xrotation
			JOINT RightLeg
			{
				OFFSET 0.00006 -17.42390 1.60435
				CHANNELS 3 Zrotation Yrotation Xrotation
				JOINT RightFoot
				{
					OFFSET 0.06154 -16.50078 -1.63900
					CHANNELS 3 Zrotation Yrotation Xrotation
					JOINT RightToes
					{
						OFFSET 0.00298 -1.73825 3.34613
						CHANNELS 3 Zrotation Yrotation Xrotation
						End Site
						{
							OFFSET 0.00000 0.00000 0.00000
						}
					}
				}
			}
		}
	}
	JOINT SpineDummy
	{
		OFFSET 0 0 0
		CHANNELS 3 Zrotation Yrotation Xrotation
		JOINT Spine
		{
			OFFSET 0.00000 4.68130 0.00000
			CHANNELS 3 Zrotation Yrotation Xrotation
			JOINT Spine1
			{
				OFFSET -0.00000 10.10138 0.05002
				CHANNELS 3 Zrotation Yrotation Xrotation
				JOINT HEadDummy
				{
					OFFSET 0 0 0
					CHANNELS 3 Zrotation Yrotation Xrotation
					JOINT Head
					{
						OFFSET -0.00000 3.43865 0.00438
						CHANNELS 3 Zrotation Yrotation Xrotation
						End Site
						{
							OFFSET 0.00000 0.00000 0.00000
						}
					}
				}
				JOINT LeftShoulder1Dummy
				{
					OFFSET 0 0 0
					CHANNELS 3 Zrotation Yrotation Xrotation
					JOINT LeftShoulder1
					{
						OFFSET 3.53937 -0.14262 -0.08662
						CHANNELS 3 Zrotation Yrotation Xrotation
						JOINT LeftArm
						{
							OFFSET 4.04833 -0.00133 0.12681
							CHANNELS 3 Zrotation Yrotation Xrotation
							JOINT LeftForeArm
							{
								OFFSET 10.33880 -0.01036 -0.55515
								CHANNELS 3 Zrotation Yrotation Xrotation
								JOINT LeftHand
								{
									OFFSET 8.69677 0.07543 0.40060
									CHANNELS 3 Zrotation Yrotation Xrotation
									End Site
									{
										OFFSET 0.00000 0.00000 0.00000
									}
								}
							}
						}
					}
				}
				JOINT RightShoulderDummy
				{
					OFFSET 0 0 0
					CHANNELS 3 Zrotation Yrotation Xrotation
					JOINT RightShoulder
					{
						OFFSET -3.53937 -0.14262 -0.08660
						CHANNELS 3 Zrotation Yrotation Xrotation
						JOINT RightArm
						{
							OFFSET -4.04833 -0.00133 0.12683
							CHANNELS 3 Zrotation Yrotation Xrotation
							JOINT RightForeArm
							{
								OFFSET -10.37987 -0.01039 -0.55511
								CHANNELS 3 Zrotation Yrotation Xrotation
								JOINT RightHand
								{
									OFFSET -8.67398 0.07538 0.40058
									CHANNELS 3 Zrotation Yrotation Xrotation
									End Site
									{
										OFFSET 0.00000 0.00000 0.00000
									}
								}
							}
						}
					}
				}
			}
		}
	}
	JOINT LeftUpLegDummy
	{
		OFFSET 0 0 0
		CHANNELS 3 Zrotation Yrotation Xrotation
		JOINT LeftUpLeg
		{
			OFFSET 3.52197 -3.41223 0.04002
			CHANNELS 3 Zrotation Yrotation Xrotation
			JOINT LeftLeg
			{
				OFFSET -0.00012 -17.42399 1.60337
				CHANNELS 3 Zrotation Yrotation Xrotation
				JOINT LeftFoot
				{
					OFFSET -0.09972 -16.50070 -1.63802
					CHANNELS 3 Zrotation Yrotation Xrotation
					JOINT LeftToes
					{
						OFFSET -0.01575 -1.73823 3.34611
						CHANNELS 3 Zrotation Yrotation Xrotation
						End Site
						{
							OFFSET 0.00000 0.00000 0.00000
						}
					}
				}
			}
		}
	}
}
MOTION
Frames: 11
Frame Time: 0.033333
75.0982 40.4052 19.3519 175.6810 -87.6516 -173.2730 0.0000 0.0000 0.0000 -1.7408 -6.5631 -0.7237 3.6430 -5.1831 2.4506 -3.7390 0.2356 -3.6733 -0.0000 0.0000 -0.0000 0.0000 0.0000 0.0000 -1.0354 -0.9041 -1.7077 2.5450 -1.4528 3.7350 0.0000 0.0000 0.0000 -1.4269 4.1008 -5.3745 0.0000 0.0000 0.0000 -12.9985 0.0539 0.6971 -35.3077 9.0306 -3.4034 1.4567 -50.9154 29.3228 5.3221 0.0205 -0.2441 0.0000 0.0000 0.0000 10.2523 -0.2497 0.5744 2.8376 -1.2322 -15.9670 4.2962 2.2372 -3.7972 -22.8552 11.1149 -3.2424 0.0000 0.0000 0.0000 1.1125 4.5403 -0.0117 -3.6402 14.4009 0.6196 2.9556 -0.1821 -3.3400 -0.0000 -0.0000 0.0000
75.0898 40.4052 19.3492 176.1280 -87.6142 -173.7270 0.0000 0.0000 0.0000 -1.7287 -6.5622 -0.7409 3.6488 -5.1229 2.5291 -3.7151 0.2341 -3.6721 -0.0000 0.0000 -0.0000 0.0000 0.0000 0.0000 -0.9875 -0.9063 -1.7061 2.4473 -1.4285 3.7610 0.0000 0.0000 0.0000 -1.5032 4.0497 -5.4167 0.0000 0.0000 0.0000 -12.8989 0.2186 0.6612 -35.4027 8.9260 -4.2296 1.3749 -50.1917 28.5498 5.3221 0.0205 -0.2441 0.0000 0.0000 0.0000 10.3478 -0.2542 0.5757 2.8380 -1.2522 -15.9876 4.2924 2.2076 -3.8079 -22.8723 11.1834 -3.2584 0.0000 0.0000 0.0000 1.1409 4.5565 0.0506 -3.6684 14.4195 0.5362 2.9036 -0.1787 -3.3141 -0.0000 -0.0000 0.0000
75.0722 40.4052 19.3434 176.7980 -87.5863 -174.3650 0.0000 0.0000 0.0000 -1.7009 -6.5548 -0.7483 3.6672 -5.0986 2.5311 -3.6997 0.2331 -3.6727 -0.0000 0.0000 -0.0000 0.0000 0.0000 0.0000 -0.9993 -0.9243 -1.7649 2.4290 -1.4442 3.8129 0.0000 0.0000 0.0000 -1.5901 4.0181 -5.4383 0.0000 0.0000 0.0000 -12.8896 0.4419 0.6165 -35.4542 8.8064 -5.3113 1.2704 -49.3027 27.5000 5.3221 0.0205 -0.2441 0.0000 0.0000 0.0000 10.4324 -0.2211 0.5837 2.8305 -1.2916 -16.0593 4.2621 2.1201 -3.6694 -22.7936 11.1650 -3.2431 0.0000 0.0000 0.0000 1.1751 4.5748 0.0578 -3.6695 14.4433 0.5120 2.8845 -0.1775 -3.3188 -0.0000 -0.0000 0.0000
75.0481 40.4048 19.3372 177.0970 -87.6020 -174.6160 0.0000 0.0000 0.0000 -1.6761 -6.5381 -0.7097 3.6774 -5.1511 2.4258 -3.7210 0.2345 -3.6909 -0.0000 0.0000 -0.0000 0.0000 0.0000 0.0000 -1.1095 -0.9647 -1.9030 2.5394 -1.5080 3.8945 0.0000 0.0000 0.0000 -1.6879 3.9428 -5.3598 0.0000 0.0000 0.0000 -12.9783 0.5090 0.6056 -35.3710 8.6801 -6.3439 1.1619 -48.4064 26.3460 5.3221 0.0205 -0.2441 0.0000 0.0000 0.0000 10.4730 -0.1471 0.5980 2.8136 -1.3283 -16.1402 4.2299 2.0134 -3.6298 -22.7851 11.0217 -3.2138 0.0000 0.0000 0.0000 1.1911 4.5864 0.0358 -3.6562 14.4202 0.5350 2.8971 -0.1783 -3.3797 -0.0000 -0.0000 0.0000
75.0245 40.4027 19.3354 176.9880 -87.6322 -174.4980 0.0000 0.0000 0.0000 -1.6837 -6.5497 -0.6331 3.6953 -5.1775 2.3320 -3.7469 0.2358 -3.7224 -0.0000 0.0000 -0.0000 0.0000 0.0000 0.0000 -1.2313 -0.9777 -2.0047 2.6695 -1.5460 3.9533 0.0000 0.0000 0.0000 -1.8824 3.7561 -5.2310 0.0000 0.0000 0.0000 -13.0182 0.4452 0.6195 -35.2650 8.5388 -7.3466 1.0512 -47.4799 25.1162 5.3221 0.0205 -0.2441 0.0000 0.0000 0.0000 10.4389 -0.1287 0.6002 2.8970 -1.3908 -16.1567 4.2378 2.0474 -4.1572 -23.0077 10.7693 -3.1968 0.0000 0.0000 0.0000 1.2051 4.6173 0.0799 -3.6942 14.3477 0.5051 2.8612 -0.1760 -3.4337 -0.0000 -0.0000 0.0000
75.0103 40.3984 19.3433 176.8110 -87.6693 -174.3460 0.0000 0.0000 0.0000 -1.7429 -6.6356 -0.5863 3.7650 -5.1163 2.3659 -3.7385 0.2320 -3.8127 -0.0000 0.0000 -0.0000 0.0000 0.0000 0.0000 -1.2423 -0.9659 -1.9503 2.7079 -1.5400 3.9003 0.0000 0.0000 0.0000 -2.0593 3.6519 -5.1203 0.0000 0.0000 0.0000 -13.0311 0.3838 0.6321 -35.2237 8.4315 -8.4090 0.9456 -46.5820 23.8930 5.3221 0.0205 -0.2441 0.0000 0.0000 0.0000 10.3071 -0.2379 0.5770 3.1104 -1.4583 -16.1269 4.2577 2.2696 -4.8690 -23.2815 10.4461 -3.1720 0.0000 0.0000 0.0000 1.2268 4.6842 0.1139 -3.7650 14.2584 0.5395 2.8399 -0.1737 -3.4867 -0.0000 -0.0000 0.0000
75.0053 40.3853 19.3582 176.6660 -87.7203 -174.2130 0.0000 0.0000 0.0000 -1.8244 -6.7543 -0.6812 3.8400 -5.0435 2.6652 -3.6766 0.2173 -4.1090 -0.0000 0.0000 -0.0000 0.0000 0.0000 0.0000 -1.1373 -0.9940 -1.7910 2.6353 -1.5558 3.7436 0.0000 0.0000 0.0000 -2.0021 3.8511 -4.9961 0.0000 0.0000 0.0000 -13.1369 0.3201 0.6480 -35.1742 8.3727 -9.5427 0.8434 -45.7213 22.6623 5.3221 0.0205 -0.2441 0.0000 0.0000 0.0000 10.2889 -0.3800 0.5515 3.2288 -1.4216 -16.1631 4.2304 2.5395 -4.9735 -23.4430 10.2939 -3.1643 0.0000 0.0000 0.0000 1.2443 4.7788 -0.0158 -3.7868 14.1459 0.8662 2.9100 -0.1728 -3.6743 -0.0000 -0.0000 0.0000
75.0009 40.3579 19.3661 175.7820 -87.7310 -173.3310 0.0000 0.0000 0.0000 -1.8753 -6.7758 -0.9999 3.7631 -5.0439 3.3989 -3.5145 0.1850 -4.7493 -0.0000 0.0000 -0.0000 0.0000 0.0000 0.0000 -1.1120 -1.0749 -1.6218 2.5503 -1.6249 3.5640 0.0000 0.0000 0.0000 -1.8241 4.1743 -4.8405 0.0000 0.0000 0.0000 -13.2678 0.2020 0.6756 -35.0716 8.2828 -10.6572 0.7387 -44.8412 21.3535 5.3221 0.0205 -0.2441 0.0000 0.0000 0.0000 10.7422 -0.3814 0.5643 3.1395 -1.2650 -16.3206 4.1887 2.8776 -5.1219 -23.8673 10.5759 -3.2824 0.0000 0.0000 0.0000 1.2407 4.8847 -0.2742 -3.7504 14.0182 1.4597 2.9258 -0.1623 -4.0435 -0.0000 -0.0000 0.0000
74.9941 40.3229 19.3538 172.9720 -87.6534 -170.5810 0.0000 0.0000 0.0000 -1.8924 -6.7092 -1.4386 3.4544 -5.0413 4.4857 -3.2196 0.1394 -5.6481 -0.0000 0.0000 -0.0000 0.0000 0.0000 0.0000 -1.3912 -1.1550 -1.3353 2.5969 -1.7146 3.3580 0.0000 0.0000 0.0000 -1.9153 4.2412 -4.7719 0.0000 0.0000 0.0000 -13.3801 0.0885 0.7020 -34.9743 8.1392 -11.7651 0.6326 -43.9552 19.9756 5.3221 0.0205 -0.2441 0.0000 0.0000 0.0000 11.7429 -0.1730 0.6321 3.2912 -1.2008 -16.4565 4.2283 3.6677 -6.9070 -25.0350 11.1665 -3.5786 0.0000 0.0000 0.0000 1.1891 4.9694 -0.4230 -3.7242 13.9649 1.9860 2.7679 -0.1414 -4.3987 -0.0000 -0.0000 0.0000
74.9862 40.2908 19.3215 168.2710 -87.5781 -166.0620 0.0000 0.0000 0.0000 -1.9081 -6.8380 -1.7551 3.0328 -4.8468 5.5955 -2.9001 0.0969 -6.5576 -0.0000 0.0000 -0.0000 0.0000 0.0000 0.0000 -1.9105 -1.2230 -0.7780 2.8035 -1.8216 3.1087 0.0000 0.0000 0.0000 -2.3812 4.0401 -4.8815 0.0000 0.0000 0.0000 -13.9336 -0.0575 0.7498 -34.8631 8.0490 -12.4087 0.5964 -43.6795 19.3732 5.3221 0.0205 -0.2441 0.0000 0.0000 0.0000 13.0710 0.2435 0.7560 4.3070 -1.5285 -16.2459 4.3471 5.2559 -9.8574 -26.5663 11.7053 -3.9313 0.0000 0.0000 0.0000 1.0776 4.9964 -0.3344 -3.7133 13.9900 2.2909 2.6181 -0.1262 -4.6089 -0.0000 -0.0000 0.0000
74.9686 40.2677 19.2777 162.6350 -87.6562 -160.7180 0.0000 0.0000 0.0000 -1.9540 -7.1269 -1.7718 2.7092 -4.6679 6.4123 -2.7520 0.0707 -7.2764 -0.0000 0.0000 -0.0000 0.0000 0.0000 0.0000 -2.3043 -1.3064 -0.1260 2.9927 -1.9520 3.0185 0.0000 0.0000 0.0000 -2.8948 3.8495 -5.0158 0.0000 0.0000 0.0000 -15.5855 -0.4862 0.9008 -32.8352 7.8259 -19.9194 0.0983 -37.5889 9.2818 5.3221 0.0205 -0.2441 0.0000 0.0000 0.0000 14.7376 0.9223 0.9600 6.1861 -2.4258 -15.4568 4.4320 7.4762 -11.3097 -27.3037 11.9127 -4.0950 0.0000 0.0000 0.0000 0.9664 4.9869 -0.0749 -3.6981 13.8802 2.4793 2.6133 -0.1213 -4.7683 -0.0000 -0.0000 0.0000
